<mxfile host="app.diagrams.net" modified="2024-05-27T13:14:29.716Z" agent="Mozilla/5.0 (Windows NT 10.0; Win64; x64; rv:126.0) Gecko/20100101 Firefox/126.0" etag="Seqhk2CcmqE0NFXjrnuf" version="24.4.8" type="device">
  <diagram id="C5RBs43oDa-KdzZeNtuy" name="Page-1">
    <mxGraphModel dx="1434" dy="818" grid="1" gridSize="10" guides="1" tooltips="1" connect="1" arrows="1" fold="1" page="1" pageScale="1" pageWidth="827" pageHeight="1169" background="#ffffff" math="0" shadow="0">
      <root>
        <mxCell id="WIyWlLk6GJQsqaUBKTNV-0" />
        <mxCell id="WIyWlLk6GJQsqaUBKTNV-1" parent="WIyWlLk6GJQsqaUBKTNV-0" />
        <mxCell id="WIyWlLk6GJQsqaUBKTNV-3" value="Timeseries&lt;br&gt;&lt;div&gt;Longitude &lt;span&gt;λ&lt;/span&gt;&lt;/div&gt;&lt;div&gt;Latitude &lt;span lang=&quot;fr&quot; class=&quot;BxUVEf ILfuVd&quot;&gt;&lt;span class=&quot;hgKElc&quot;&gt;Φ&lt;/span&gt;&lt;/span&gt;&lt;/div&gt;&lt;div&gt;Altitude z&lt;br&gt;&lt;/div&gt;" style="rounded=1;whiteSpace=wrap;html=1;fontSize=12;glass=0;strokeWidth=1;shadow=0;fillColor=#60a917;fontColor=#ffffff;strokeColor=#2D7600;" parent="WIyWlLk6GJQsqaUBKTNV-1" vertex="1">
          <mxGeometry x="71" y="30" width="140" height="75" as="geometry" />
        </mxCell>
        <mxCell id="nY5QdWtAfCeqt1IPBH1M-0" value="Solar zenith &lt;span lang=&quot;en&quot; class=&quot;BxUVEf ILfuVd&quot;&gt;&lt;span class=&quot;hgKElc&quot;&gt;θ&lt;sub&gt;z&lt;/sub&gt;&lt;/span&gt;&lt;/span&gt;&lt;br&gt;Solar azimuth &lt;span&gt;γ&lt;sub&gt;s&lt;/sub&gt;&lt;/span&gt;" style="rounded=0;whiteSpace=wrap;html=1;fillColor=#1ba1e2;fontColor=#ffffff;strokeColor=default;" parent="WIyWlLk6GJQsqaUBKTNV-1" vertex="1">
          <mxGeometry x="51" y="180" width="180" height="40" as="geometry" />
        </mxCell>
        <mxCell id="nY5QdWtAfCeqt1IPBH1M-9" value="" style="endArrow=classic;html=1;rounded=0;exitX=0.5;exitY=1;exitDx=0;exitDy=0;entryX=0.5;entryY=0;entryDx=0;entryDy=0;strokeWidth=2;" parent="WIyWlLk6GJQsqaUBKTNV-1" source="WIyWlLk6GJQsqaUBKTNV-3" target="nY5QdWtAfCeqt1IPBH1M-0" edge="1">
          <mxGeometry relative="1" as="geometry">
            <mxPoint x="170" y="400" as="sourcePoint" />
            <mxPoint x="270" y="400" as="targetPoint" />
          </mxGeometry>
        </mxCell>
        <mxCell id="nY5QdWtAfCeqt1IPBH1M-10" value="solarposition.get_solarposition" style="edgeLabel;resizable=0;html=1;align=center;verticalAlign=middle;" parent="nY5QdWtAfCeqt1IPBH1M-9" connectable="0" vertex="1">
          <mxGeometry relative="1" as="geometry" />
        </mxCell>
        <mxCell id="b3d6tO9OOzQfFbIuxBPO-0" value="&lt;div&gt;Tracker/axis azimuth &lt;span&gt;γ&lt;sub&gt;a&lt;/sub&gt;&lt;/span&gt;&lt;/div&gt;&lt;div&gt;Tracker/axis tilt&amp;nbsp;&lt;span lang=&quot;fr&quot; class=&quot;BxUVEf ILfuVd&quot;&gt;&lt;span class=&quot;hgKElc&quot;&gt;β&lt;/span&gt;&lt;/span&gt;&lt;span&gt;&lt;sub&gt;a&lt;/sub&gt;&lt;/span&gt;&lt;/div&gt;&lt;div&gt;Real weather data&lt;br&gt;&lt;/div&gt;&lt;div&gt;GHI&lt;/div&gt;" style="rounded=1;whiteSpace=wrap;html=1;fontSize=12;glass=0;strokeWidth=1;shadow=0;fillColor=#60a917;fontColor=#ffffff;strokeColor=#2D7600;" parent="WIyWlLk6GJQsqaUBKTNV-1" vertex="1">
          <mxGeometry x="280" y="70" width="180" height="70" as="geometry" />
        </mxCell>
        <mxCell id="b3d6tO9OOzQfFbIuxBPO-1" value="&lt;div&gt;&lt;span lang=&quot;fr&quot; class=&quot;BxUVEf ILfuVd&quot;&gt;&lt;span class=&quot;hgKElc&quot;&gt;β&lt;/span&gt;&lt;/span&gt;&lt;span lang=&quot;en&quot; class=&quot;BxUVEf ILfuVd&quot;&gt;&lt;span class=&quot;hgKElc&quot;&gt;&lt;sub&gt; &lt;/sub&gt;tracker rotation angle&lt;sub&gt;&lt;br&gt;&lt;/sub&gt;&lt;/span&gt;&lt;/span&gt;&lt;/div&gt;&lt;div&gt;-&amp;nbsp;&lt;span lang=&quot;fr&quot; class=&quot;BxUVEf ILfuVd&quot;&gt;&lt;span class=&quot;hgKElc&quot;&gt;β&lt;sub&gt;max&lt;/sub&gt;&lt;/span&gt;&lt;/span&gt; &amp;lt;= &lt;span lang=&quot;fr&quot; class=&quot;BxUVEf ILfuVd&quot;&gt;&lt;span class=&quot;hgKElc&quot;&gt;β&lt;/span&gt;&lt;/span&gt;&lt;span lang=&quot;en&quot; class=&quot;BxUVEf ILfuVd&quot;&gt;&lt;span class=&quot;hgKElc&quot;&gt;&lt;sub&gt; &lt;/sub&gt;&lt;/span&gt;&lt;/span&gt;&amp;lt;= &lt;span lang=&quot;fr&quot; class=&quot;BxUVEf ILfuVd&quot;&gt;&lt;span class=&quot;hgKElc&quot;&gt;β&lt;sub&gt;max&lt;/sub&gt;&lt;/span&gt;&lt;/span&gt;&lt;/div&gt;&lt;div&gt;Resolution of 1°&lt;br&gt;&lt;/div&gt;&lt;div&gt;&lt;u&gt;Initialization:&lt;/u&gt; &lt;span lang=&quot;fr&quot; class=&quot;BxUVEf ILfuVd&quot;&gt;&lt;span class=&quot;hgKElc&quot;&gt;β&lt;/span&gt;&lt;/span&gt;&lt;span class=&quot;hgKElc&quot;&gt;&lt;sub&gt; &lt;/sub&gt;&lt;/span&gt;= -&amp;nbsp;&lt;span lang=&quot;fr&quot; class=&quot;BxUVEf ILfuVd&quot;&gt;&lt;span class=&quot;hgKElc&quot;&gt;β&lt;sub&gt;max&lt;/sub&gt;&lt;/span&gt;&lt;/span&gt;&lt;/div&gt;" style="rounded=0;whiteSpace=wrap;html=1;fillStyle=solid;fillColor=#76608a;strokeColor=#432D57;fontColor=#ffffff;" parent="WIyWlLk6GJQsqaUBKTNV-1" vertex="1">
          <mxGeometry x="500" y="140" width="210" height="80" as="geometry" />
        </mxCell>
        <mxCell id="b3d6tO9OOzQfFbIuxBPO-20" style="edgeStyle=orthogonalEdgeStyle;rounded=0;orthogonalLoop=1;jettySize=auto;html=1;exitX=0.5;exitY=1;exitDx=0;exitDy=0;entryX=0.5;entryY=0;entryDx=0;entryDy=0;strokeWidth=2;" parent="WIyWlLk6GJQsqaUBKTNV-1" source="b3d6tO9OOzQfFbIuxBPO-17" target="b3d6tO9OOzQfFbIuxBPO-19" edge="1">
          <mxGeometry relative="1" as="geometry" />
        </mxCell>
        <mxCell id="b3d6tO9OOzQfFbIuxBPO-17" value="POA irradiance (global, direct, diffuse, sky diffuse, ground reflected) G&lt;sub&gt;POA&lt;/sub&gt;(&lt;span lang=&quot;fr&quot; class=&quot;BxUVEf ILfuVd&quot;&gt;&lt;span class=&quot;hgKElc&quot;&gt;β)&lt;/span&gt;&lt;/span&gt;&lt;br&gt;(Perez irradiance transposition model)" style="rounded=0;whiteSpace=wrap;html=1;fillStyle=solid;fillColor=#E67300;strokeColor=#663300;" parent="WIyWlLk6GJQsqaUBKTNV-1" vertex="1">
          <mxGeometry x="225" y="430" width="290" height="50" as="geometry" />
        </mxCell>
        <mxCell id="b3d6tO9OOzQfFbIuxBPO-19" value="&lt;div&gt;Optimal rotation angle &lt;span lang=&quot;fr&quot; class=&quot;BxUVEf ILfuVd&quot;&gt;&lt;span class=&quot;hgKElc&quot;&gt;β&lt;/span&gt;&lt;/span&gt;&lt;span lang=&quot;en&quot; class=&quot;BxUVEf ILfuVd&quot;&gt;&lt;span class=&quot;hgKElc&quot;&gt;&lt;sub&gt;&lt;/sub&gt;&lt;/span&gt;&lt;/span&gt;&lt;sub&gt;opt&lt;/sub&gt;&lt;br&gt;&lt;/div&gt;&lt;div&gt;POA irradiance G&lt;sub&gt;POA,opt&lt;/sub&gt;&lt;br&gt;&lt;/div&gt;" style="rounded=0;whiteSpace=wrap;html=1;fillColor=#1ba1e2;fontColor=#ffffff;strokeColor=default;" parent="WIyWlLk6GJQsqaUBKTNV-1" vertex="1">
          <mxGeometry x="280" y="570" width="180" height="60" as="geometry" />
        </mxCell>
        <mxCell id="b3d6tO9OOzQfFbIuxBPO-22" style="edgeStyle=orthogonalEdgeStyle;rounded=0;orthogonalLoop=1;jettySize=auto;html=1;entryX=0.5;entryY=0;entryDx=0;entryDy=0;strokeWidth=2;" parent="WIyWlLk6GJQsqaUBKTNV-1" source="b3d6tO9OOzQfFbIuxBPO-21" target="b3d6tO9OOzQfFbIuxBPO-1" edge="1">
          <mxGeometry relative="1" as="geometry" />
        </mxCell>
        <mxCell id="b3d6tO9OOzQfFbIuxBPO-21" value="Maximum rotation angle &lt;span lang=&quot;fr&quot; class=&quot;BxUVEf ILfuVd&quot;&gt;&lt;span class=&quot;hgKElc&quot;&gt;β&lt;sub&gt;max&lt;/sub&gt;&lt;/span&gt;&lt;/span&gt;" style="rounded=1;whiteSpace=wrap;html=1;fontSize=12;glass=0;strokeWidth=1;shadow=0;fillColor=#60a917;fontColor=#ffffff;strokeColor=#2D7600;" parent="WIyWlLk6GJQsqaUBKTNV-1" vertex="1">
          <mxGeometry x="520" y="45" width="170" height="40" as="geometry" />
        </mxCell>
        <mxCell id="O4i9VfM06XI1pBtCiao6-0" value="" style="endArrow=none;html=1;rounded=0;dashed=1;" parent="WIyWlLk6GJQsqaUBKTNV-1" edge="1">
          <mxGeometry width="50" height="50" relative="1" as="geometry">
            <mxPoint x="369" y="520" as="sourcePoint" />
            <mxPoint x="659" y="520" as="targetPoint" />
          </mxGeometry>
        </mxCell>
        <mxCell id="O4i9VfM06XI1pBtCiao6-2" value="" style="endArrow=classic;html=1;rounded=0;entryX=0.75;entryY=1;entryDx=0;entryDy=0;dashed=1;" parent="WIyWlLk6GJQsqaUBKTNV-1" target="b3d6tO9OOzQfFbIuxBPO-1" edge="1">
          <mxGeometry relative="1" as="geometry">
            <mxPoint x="658" y="520" as="sourcePoint" />
            <mxPoint x="620" y="400" as="targetPoint" />
          </mxGeometry>
        </mxCell>
        <mxCell id="O4i9VfM06XI1pBtCiao6-3" value="&lt;span lang=&quot;fr&quot; class=&quot;BxUVEf ILfuVd&quot;&gt;&lt;span class=&quot;hgKElc&quot;&gt;β &lt;/span&gt;&lt;/span&gt;= &lt;span lang=&quot;fr&quot; class=&quot;BxUVEf ILfuVd&quot;&gt;&lt;span class=&quot;hgKElc&quot;&gt;β &lt;/span&gt;&lt;/span&gt;+ 1" style="edgeLabel;resizable=0;html=1;align=center;verticalAlign=middle;" parent="O4i9VfM06XI1pBtCiao6-2" connectable="0" vertex="1">
          <mxGeometry relative="1" as="geometry" />
        </mxCell>
        <mxCell id="Nlrnzq0-V_x93CKlz8eS-1" value="" style="endArrow=none;html=1;rounded=0;entryX=0.5;entryY=1;entryDx=0;entryDy=0;strokeWidth=2;" parent="WIyWlLk6GJQsqaUBKTNV-1" edge="1">
          <mxGeometry width="50" height="50" relative="1" as="geometry">
            <mxPoint x="140" y="340" as="sourcePoint" />
            <mxPoint x="141" y="220" as="targetPoint" />
          </mxGeometry>
        </mxCell>
        <mxCell id="Nlrnzq0-V_x93CKlz8eS-4" value="" style="endArrow=none;html=1;rounded=0;strokeWidth=2;entryX=0.5;entryY=1;entryDx=0;entryDy=0;" parent="WIyWlLk6GJQsqaUBKTNV-1" target="Nlrnzq0-V_x93CKlz8eS-19" edge="1">
          <mxGeometry width="50" height="50" relative="1" as="geometry">
            <mxPoint x="370" y="346" as="sourcePoint" />
            <mxPoint x="370" y="306" as="targetPoint" />
          </mxGeometry>
        </mxCell>
        <mxCell id="Nlrnzq0-V_x93CKlz8eS-5" value="" style="endArrow=none;html=1;rounded=0;strokeWidth=2;entryX=0.5;entryY=1;entryDx=0;entryDy=0;" parent="WIyWlLk6GJQsqaUBKTNV-1" target="b3d6tO9OOzQfFbIuxBPO-1" edge="1">
          <mxGeometry width="50" height="50" relative="1" as="geometry">
            <mxPoint x="605" y="340" as="sourcePoint" />
            <mxPoint x="600" y="240" as="targetPoint" />
          </mxGeometry>
        </mxCell>
        <mxCell id="Nlrnzq0-V_x93CKlz8eS-6" value="" style="endArrow=none;html=1;rounded=0;strokeWidth=2;" parent="WIyWlLk6GJQsqaUBKTNV-1" edge="1">
          <mxGeometry width="50" height="50" relative="1" as="geometry">
            <mxPoint x="370" y="340" as="sourcePoint" />
            <mxPoint x="606" y="340" as="targetPoint" />
          </mxGeometry>
        </mxCell>
        <mxCell id="Nlrnzq0-V_x93CKlz8eS-7" value="" style="endArrow=none;html=1;rounded=0;strokeWidth=2;" parent="WIyWlLk6GJQsqaUBKTNV-1" edge="1">
          <mxGeometry width="50" height="50" relative="1" as="geometry">
            <mxPoint x="140" y="340" as="sourcePoint" />
            <mxPoint x="376" y="340" as="targetPoint" />
          </mxGeometry>
        </mxCell>
        <mxCell id="Nlrnzq0-V_x93CKlz8eS-8" value="" style="endArrow=classic;html=1;rounded=0;entryX=0.5;entryY=0;entryDx=0;entryDy=0;strokeWidth=2;" parent="WIyWlLk6GJQsqaUBKTNV-1" target="b3d6tO9OOzQfFbIuxBPO-17" edge="1">
          <mxGeometry relative="1" as="geometry">
            <mxPoint x="370" y="320" as="sourcePoint" />
            <mxPoint x="240" y="760" as="targetPoint" />
          </mxGeometry>
        </mxCell>
        <mxCell id="Nlrnzq0-V_x93CKlz8eS-9" value="irradiance.get_total_irradiance" style="edgeLabel;resizable=0;html=1;;align=center;verticalAlign=middle;" parent="Nlrnzq0-V_x93CKlz8eS-8" connectable="0" vertex="1">
          <mxGeometry relative="1" as="geometry" />
        </mxCell>
        <mxCell id="Nlrnzq0-V_x93CKlz8eS-13" value="Inputs" style="rounded=1;whiteSpace=wrap;html=1;fontSize=12;glass=0;strokeWidth=1;shadow=0;fillColor=#60a917;fontColor=#ffffff;strokeColor=#2D7600;" parent="WIyWlLk6GJQsqaUBKTNV-1" vertex="1">
          <mxGeometry x="30" y="500" width="100" height="25" as="geometry" />
        </mxCell>
        <mxCell id="Nlrnzq0-V_x93CKlz8eS-14" value="Calculation step" style="rounded=0;whiteSpace=wrap;html=1;fillStyle=solid;fillColor=#E67300;strokeColor=#663300;" parent="WIyWlLk6GJQsqaUBKTNV-1" vertex="1">
          <mxGeometry x="30" y="576" width="100" height="20" as="geometry" />
        </mxCell>
        <mxCell id="Nlrnzq0-V_x93CKlz8eS-15" value="Outputs" style="rounded=0;whiteSpace=wrap;html=1;fillColor=#1ba1e2;fontColor=#ffffff;strokeColor=default;" parent="WIyWlLk6GJQsqaUBKTNV-1" vertex="1">
          <mxGeometry x="30" y="610" width="100" height="20" as="geometry" />
        </mxCell>
        <mxCell id="Nlrnzq0-V_x93CKlz8eS-17" value="" style="endArrow=none;html=1;rounded=0;strokeWidth=2;" parent="WIyWlLk6GJQsqaUBKTNV-1" edge="1">
          <mxGeometry width="50" height="50" relative="1" as="geometry">
            <mxPoint x="231" y="199.5" as="sourcePoint" />
            <mxPoint x="370" y="200" as="targetPoint" />
          </mxGeometry>
        </mxCell>
        <mxCell id="Nlrnzq0-V_x93CKlz8eS-18" value="" style="endArrow=none;html=1;rounded=0;strokeWidth=2;entryX=0.5;entryY=1;entryDx=0;entryDy=0;" parent="WIyWlLk6GJQsqaUBKTNV-1" target="b3d6tO9OOzQfFbIuxBPO-0" edge="1">
          <mxGeometry width="50" height="50" relative="1" as="geometry">
            <mxPoint x="370" y="210" as="sourcePoint" />
            <mxPoint x="380" y="290" as="targetPoint" />
          </mxGeometry>
        </mxCell>
        <mxCell id="Nlrnzq0-V_x93CKlz8eS-19" value="&lt;div&gt;&lt;font color=&quot;#ffffff&quot;&gt;DHI, DNI&lt;/font&gt;&lt;/div&gt;&lt;div&gt;&lt;font color=&quot;#ffffff&quot;&gt;(Erbs decomposition model)&lt;br&gt;&lt;/font&gt;&lt;/div&gt;" style="rounded=0;whiteSpace=wrap;html=1;fillStyle=solid;fillColor=#1BA1E2;strokeColor=#000000;" parent="WIyWlLk6GJQsqaUBKTNV-1" vertex="1">
          <mxGeometry x="270" y="250" width="200" height="40" as="geometry" />
        </mxCell>
        <mxCell id="Nlrnzq0-V_x93CKlz8eS-20" value="" style="endArrow=classic;html=1;rounded=0;endFill=1;strokeWidth=2;" parent="WIyWlLk6GJQsqaUBKTNV-1" edge="1">
          <mxGeometry relative="1" as="geometry">
            <mxPoint x="369.5" y="200" as="sourcePoint" />
            <mxPoint x="369.5" y="250" as="targetPoint" />
          </mxGeometry>
        </mxCell>
        <mxCell id="Nlrnzq0-V_x93CKlz8eS-21" value="irradiance.erbs" style="edgeLabel;resizable=0;html=1;;align=center;verticalAlign=middle;" parent="Nlrnzq0-V_x93CKlz8eS-20" connectable="0" vertex="1">
          <mxGeometry relative="1" as="geometry" />
        </mxCell>
        <mxCell id="Nlrnzq0-V_x93CKlz8eS-23" value="Iteration" style="rounded=0;whiteSpace=wrap;html=1;fillStyle=solid;fillColor=#76608a;strokeColor=#432D57;fontColor=#ffffff;" parent="WIyWlLk6GJQsqaUBKTNV-1" vertex="1">
          <mxGeometry x="30" y="540" width="100" height="20" as="geometry" />
        </mxCell>
      </root>
    </mxGraphModel>
  </diagram>
</mxfile>
